<svg width="1920" height="647" viewBox="0 0 1920 647" fill="none" xmlns="http://www.w3.org/2000/svg">
<rect width="1920" height="647" fill="#E5E5E5"/>
<g clip-path="url(#clip0)">
<rect width="1920" height="647" fill="white"/>
<path d="M547.569 1.25751C382.826 -75.2749 110.259 -30.631 -5.43096 1.25751L-17 647L2748 639.028C2665.47 629.284 2546.7 563.293 2417.13 523.432C2288.7 483.924 2157.98 507.428 2014.52 499.516C1604.98 476.928 1754.91 319.877 1031.15 255.037C584.59 197.903 753.498 96.9231 547.569 1.25751Z" fill="url(#paint0_linear)"/>
<path d="M547.035 322.166C336.852 233.122 83.4354 285.064 -17 322.166V701.014C712.21 707.992 2171.69 722.356 2175.95 723.99C2181.27 726.032 1752.26 425.302 1266.05 493.209C779.832 561.116 809.763 433.472 547.035 322.166Z" fill="url(#paint1_linear)"/>
<ellipse cx="1420.5" cy="717" rx="274.5" ry="174" fill="white"/>
<ellipse cx="1300" cy="346.5" rx="121" ry="116.5" fill="url(#paint2_linear)"/>
<ellipse cx="1680.5" cy="80.5" rx="182.5" ry="167.5" fill="url(#paint3_linear)"/>
<ellipse cx="212.5" cy="710" rx="252.5" ry="174" fill="white"/>
<ellipse cx="612.5" cy="710" rx="270.5" ry="174" fill="white"/>
<ellipse cx="997.5" cy="710" rx="274.5" ry="174" fill="white"/>
<ellipse cx="1893.5" cy="710" rx="274.5" ry="174" fill="white"/>
</g>
<defs>
<linearGradient id="paint0_linear" x1="-17" y1="5.24356" x2="2074.74" y2="1487.3" gradientUnits="userSpaceOnUse">
<stop stop-color="#00E0FF"/>
<stop offset="0.468462" stop-color="#4200FF" stop-opacity="0.64"/>
<stop offset="1" stop-color="#0038FF" stop-opacity="0.59"/>
</linearGradient>
<linearGradient id="paint1_linear" x1="1079.5" y1="273" x2="1079.5" y2="724" gradientUnits="userSpaceOnUse">
<stop stop-color="#00B4DC"/>
<stop offset="1" stop-color="#5A0DFE" stop-opacity="0"/>
</linearGradient>
<linearGradient id="paint2_linear" x1="1300" y1="230" x2="1300" y2="463" gradientUnits="userSpaceOnUse">
<stop stop-color="#4200FF" stop-opacity="0.64"/>
<stop offset="0.504425" stop-color="#9021FF" stop-opacity="0.55"/>
<stop offset="1" stop-color="#00E0FF" stop-opacity="0.31"/>
</linearGradient>
<linearGradient id="paint3_linear" x1="1680.5" y1="-87" x2="1680.5" y2="248" gradientUnits="userSpaceOnUse">
<stop stop-color="#0094FF" stop-opacity="0.64"/>
<stop offset="1" stop-color="#FB5AEB" stop-opacity="0.31"/>
</linearGradient>
<clipPath id="clip0">
<rect width="1920" height="647" fill="white"/>
</clipPath>
</defs>
</svg>
